# xmcd CD database file
#
# Track frame offsets:
#	150
#	13855
#	35259
#	48495
#	61041
#	74535
#	85144
#	104956
#	123169
#	138877
#	154061
#	179906
#
# Disc length: 2615 seconds
#
# Revision: 1
# Processed by: cddbd v1.5.2PL0 Copyright (c) Steve Scherf et al.
# Submitted via: CDex 1.51
#
DISCID=a80a350c
DTITLE=Little Bobby And The Jumpstarts - Tickets In The Glove Box
DYEAR=2001
DGENRE=Blues
TTITLE0=The Tells
TTITLE1=Don't Get Caught Looking
TTITLE2=Swear To Tell The Truth
TTITLE3=The Bells Are Ringing
TTITLE4=Keep It To Yourself
TTITLE5=Tell Me What's The Reason
TTITLE6=No Second Chances
TTITLE7=You Killing Me
TTITLE8=Poison Ivy
TTITLE9=4 O'Clock In The Morninmg
TTITLE10=Sunny Day Blues
TTITLE11=Tickets In The Glove Box
EXTD=YEAR: 2001
EXTT0=
EXTT1=
EXTT2=
EXTT3=
EXTT4=
EXTT5=
EXTT6=
EXTT7=
EXTT8=
EXTT9=
EXTT10=
EXTT11=
PLAYORDER=
